# xmcd CD database file
#
# Track frame offsets:
#	150
#	26030
#	42155
#	64700
#	101889
#	118235
#	156359
#	173314
#	197104
#	234129
#	261688
#	299501
#	344350
#
# Disc length: 4591 seconds
#
# Revision: 0
# Processed by: cddbd v1.5.2PL0 Copyright (c) Steve Scherf et al.
# Submitted via: CDex 1.51
#
DISCID=c111ed0d
DTITLE=Jane Bunnett - Radio Guantanamo (Guantanamo blues project vol.1)
DYEAR=2005
DGENRE=Jazz - Blues
TTITLE0=Changui Para Alfredo
TTITLE1=Give me one dollar
TTITLE2=Kiriba
TTITLE3=Guantanamo Blues (part1)
TTITLE4=Loma de Chivo (part2)
TTITLE5=You have change my life
TTITLE6=No money no chica
TTITLE7=Conga Blues
TTITLE8=New Orleans under water (Nueva Orleans bajo agua)
TTITLE9=Yemaya
TTITLE10=Vamos para guaso compay (let's go to Guantanamo Man)
TTITLE11=data cd tarck
TTITLE12=bonus track
EXTD=YEAR: 2005
EXTT0=
EXTT1=
EXTT2=
EXTT3=
EXTT4=
EXTT5=
EXTT6=
EXTT7=
EXTT8=
EXTT9=
EXTT10=
EXTT11=
EXTT12=
PLAYORDER=
